<svg width="100" height="100" viewBox="0 0 100 100" fill="none" xmlns="http://www.w3.org/2000/svg">
<g clip-path="url(#clip0_566_10533)">
<rect width="100" height="100" fill="white"/>
<path d="M85.8075 16.0771H14.6635C11.0398 16.0771 7.56437 17.5167 5.00208 20.079C2.43958 22.6415 1 26.1167 1 29.7405V66.9615C1 70.4605 2.39 73.8161 4.86396 76.2901C7.33812 78.764 10.6935 80.154 14.1923 80.154H16.0769V89.5015C16.0769 92.0209 17.0775 94.4367 18.859 96.2182C20.6402 97.9992 23.0563 99.0001 25.5752 99.0001H74.4246C76.9437 99.0001 79.3596 97.9992 81.141 96.2182C82.9223 94.4367 83.9229 92.0209 83.9229 89.5015V80.154H85.8075C89.3065 80.154 92.6617 78.764 95.1358 76.2901C97.6098 73.8161 99 70.4605 99 66.9615V29.2692C99 25.7707 97.6098 22.4151 95.1358 19.9411C92.6617 17.4669 89.3062 16.0771 85.8075 16.0771ZM76.3846 89.5015C76.3825 90.0207 76.1754 90.5182 75.8083 90.8853C75.4412 91.2528 74.9437 91.4599 74.4246 91.4615H25.5752C25.056 91.4599 24.5585 91.2528 24.1917 90.8853C23.8244 90.5182 23.6173 90.0207 23.6154 89.5015V51.9601C23.6173 51.4409 23.8244 50.9434 24.1917 50.5763C24.5585 50.209 25.056 50.0021 25.5752 50.0001H74.4246C74.9437 50.0021 75.4412 50.209 75.8083 50.5763C76.1754 50.9434 76.3825 51.4409 76.3846 51.9601V89.5015ZM82.5094 38.6736C81.3562 38.7661 80.2025 38.503 79.2037 37.9192C78.2048 37.3355 77.4094 36.4594 76.9242 35.4092C76.4385 34.359 76.2875 33.1853 76.4904 32.0465C76.6931 30.9074 77.2406 29.8582 78.059 29.0401C78.8767 28.2219 79.9258 27.6746 81.065 27.4717C82.2042 27.2688 83.3775 27.4201 84.4277 27.9053C85.4781 28.3909 86.354 29.1861 86.9377 30.1851C87.5215 31.1838 87.7848 32.3378 87.6921 33.4909C87.5846 34.8294 87.0042 36.0861 86.0546 37.0357C85.105 37.9857 83.8479 38.5659 82.5094 38.6736Z" fill="black"/>
<path d="M70.7317 0.999939H29.2702C26.0994 1.00473 23.0361 2.14952 20.6394 4.22536C18.2425 6.3014 16.6717 9.16994 16.2146 12.3076H83.7873C83.33 9.16994 81.7596 6.3014 79.3627 4.22536C76.9661 2.14952 73.9025 1.00473 70.7317 0.999939Z" fill="black"/>
</g>
<defs>
<clipPath id="clip0_566_10533">
<rect width="100" height="100" fill="white"/>
</clipPath>
</defs>
</svg>
