<svg width="142" height="100" viewBox="0 0 142 100" fill="none" xmlns="http://www.w3.org/2000/svg">
<path fill-rule="evenodd" clip-rule="evenodd" d="M54.3625 32.2483L68.5382 19.4383C75.1342 13.478 84.0159 10.7166 92.8286 11.8864L111.58 14.3756L137.608 0.307097C139.289 -0.601766 141.332 0.615805 141.332 2.52731V50.3595C141.332 53.6166 139.761 56.6737 137.112 58.5692L119.584 71.1116L100.614 55.1948C104.425 53.8434 107.679 51.6147 110.365 48.8297C112.784 46.3213 112.711 42.327 110.202 39.9083C107.695 37.4895 103.7 37.5622 101.281 40.0706C99.4037 42.0178 97.2338 43.2686 94.6948 43.7656C92.4822 44.1988 89.665 44.1214 86.1224 43.0356L81.6142 39.2529L69.0509 49.4203C64.1155 53.4144 56.8592 52.5609 52.9854 47.5304C49.3868 42.8574 49.9864 36.2028 54.3625 32.2483ZM45.902 22.8856L56.0806 13.6877C51.7592 12.5087 47.1808 12.2671 42.6576 13.0503L24.1274 16.2586L3.80051 5.31902C2.08262 4.39451 0 5.63873 0 7.58961L0.000207085 50.3551C0.000223175 53.766 1.68646 56.9561 4.50474 58.8773L59.5728 96.4162C66.7016 101.276 76.1019 101.186 83.1362 96.19L108.431 78.226L81.4693 55.6036L76.9893 59.2292C66.5436 67.6827 51.1861 65.8761 42.9874 55.2294C35.3711 45.3392 36.6402 31.2551 45.902 22.8856Z" fill="black"/>
</svg>
