<svg width="101" height="100" viewBox="0 0 101 100" fill="none" xmlns="http://www.w3.org/2000/svg">
<path d="M97.875 59.5L59.625 97.875C58.875 98.5833 58.0312 99.1145 57.0937 99.4687C56.1562 99.823 55.2187 100 54.2812 100C53.3437 100 52.4168 99.8125 51.5 99.4375C50.5833 99.0625 49.75 98.5418 49 97.875L2.25 51C1.58333 50.3332 1.04167 49.5432 0.625 48.63C0.208325 47.7175 0 46.7575 0 45.75V7.5C0 5.4375 0.734574 3.67168 2.20375 2.2025C3.67207 0.734175 5.4375 0 7.5 0H45.875C46.8808 0 47.8555 0.202926 48.7988 0.608751C49.7413 1.01543 50.5583 1.5625 51.25 2.25L97.875 48.875C98.6575 49.625 99.2282 50.4688 99.5875 51.4062C99.9457 52.3438 100.125 53.2812 100.125 54.2188C100.125 55.1562 99.9375 56.1043 99.5625 57.0625C99.1875 58.0208 98.625 58.8332 97.875 59.5ZM20.625 27C22.375 27 23.8957 26.3542 25.1875 25.0625C26.4792 23.7707 27.125 22.25 27.125 20.5C27.125 18.75 26.4792 17.2293 25.1875 15.9375C23.8957 14.6458 22.375 14 20.625 14C18.875 14 17.3543 14.6458 16.0625 15.9375C14.7708 17.2293 14.125 18.75 14.125 20.5C14.125 22.25 14.7708 23.7707 16.0625 25.0625C17.3543 26.3542 18.875 27 20.625 27Z" fill="black"/>
</svg>
