<svg width="32" height="32" viewBox="0 0 32 32" fill="none" xmlns="http://www.w3.org/2000/svg">
<path fill-rule="evenodd" clip-rule="evenodd" d="M32 8C32 3.58172 28.4183 0 24 0H8C3.58172 0 0 3.58172 0 8V24C0 28.4183 3.58172 32 8 32H24C28.4183 32 32 28.4183 32 24V8ZM11.9111 6.22219H20.2667C23.4667 6.22219 25.9555 8.71109 25.9555 11.7334V20.0889C25.9555 23.1111 23.4667 25.6 20.2667 25.6H11.9111C8.71109 25.6 6.22223 23.1111 6.22223 20.0889V11.9111C6.22223 8.71109 8.71109 6.22219 11.9111 6.22219ZM19.3778 8.35555H12.8C10.3111 8.35555 8.17777 10.3111 8.35555 12.8V19.3778C8.35555 21.8666 10.3111 23.8222 12.8 23.8222H19.3778C21.8667 23.8222 23.8222 21.8666 23.8222 19.3778V12.8C23.8222 10.3111 21.8667 8.35555 19.3778 8.35555ZM21.1555 16.1778C21.1555 13.3334 18.8445 11.0222 16 11.0222C12.9778 11.0222 10.6667 13.3334 10.6667 16.1778C10.6667 19.0222 13.1555 21.3334 16 21.3334C18.8445 21.3334 21.1555 19.0222 21.1555 16.1778ZM16 13.1555C17.6 13.1555 19.0222 14.5778 19.0222 16.1778C19.0222 17.7778 17.6 19.2 16 19.2C14.4 19.2 12.9778 17.7778 12.9778 16.1778C12.9778 14.5778 14.2222 13.1555 16 13.1555ZM20.9778 10.1334C21.5111 10.1334 22.0445 10.4889 22.0445 11.2C22.0445 11.7334 21.6889 12.2666 20.9778 12.2666C20.4445 12.2666 19.9111 11.9111 19.9111 11.2C19.9111 10.4889 20.4445 10.1334 20.9778 10.1334Z" fill="black"/>
</svg>
