<svg width="32" height="32" viewBox="0 0 32 32" fill="none" xmlns="http://www.w3.org/2000/svg">
<path fill-rule="evenodd" clip-rule="evenodd" d="M32 8C32 3.58172 28.4183 0 24 0H8C3.58172 0 0 3.58172 0 8V24C0 28.4183 3.58172 32 8 32H24C28.4183 32 32 28.4183 32 24V8ZM13.789 16.9558L6.14117 6.73016H12.0355L17.0493 13.4339L23.2544 6.73016H24.9866L17.8231 14.4691L25.9015 25.2697H20.0071L14.5632 17.9905L7.82516 25.2697H6.09297L13.789 16.9558ZM8.68844 8.00594H11.3963L23.3538 23.9939H20.6461L8.68844 8.00594Z" fill="black"/>
</svg>
