<?xml version="1.0" encoding="UTF-8"?>
<svg id="Layer_1" xmlns="http://www.w3.org/2000/svg" version="1.1" viewBox="0 0 160 160">
  <!-- Generator: Adobe Illustrator 29.8.2, SVG Export Plug-In . SVG Version: 2.1.1 Build 3)  -->
  <defs>
    <style>
      .st0 {
        fill: #fff;
      }
    </style>
  </defs>
  <path class="st0" d="M145.5,36.4v87.3c0,12-9.8,21.8-21.8,21.8h-12.1v-73.2c0-2-.8-3.8-2.1-5.1-1.3-1.3-3.1-2.1-5.1-2.1-4,0-7.3,3.3-7.3,7.3v73.2h-33.9v-73.2c0-2-.8-3.8-2.1-5.1-1.3-1.3-3.1-2.1-5.1-2.1-4,0-7.3,3.3-7.3,7.3v73.2h-12.1c-12,0-21.8-9.8-21.8-21.8V36.4c0-12,9.8-21.8,21.8-21.8h87.3c12,0,21.8,9.8,21.8,21.8Z"/>
  <path d="M123.6,0H36.4C16.3,0,0,16.3,0,36.4v87.3c0,20.1,16.3,36.4,36.4,36.4h87.3c20.1,0,36.4-16.3,36.4-36.4V36.4c0-20.1-16.3-36.4-36.4-36.4ZM145.5,123.6c0,12-9.8,21.8-21.8,21.8h-12.1v-73.2c0-2-.8-3.8-2.1-5.1-1.3-1.3-3.1-2.1-5.1-2.1-4,0-7.3,3.3-7.3,7.3v73.2h-33.9v-73.2c0-2-.8-3.8-2.1-5.1-1.3-1.3-3.1-2.1-5.1-2.1-4,0-7.3,3.3-7.3,7.3v73.2h-12.1c-12,0-21.8-9.8-21.8-21.8V36.4c0-12,9.8-21.8,21.8-21.8h87.3c12,0,21.8,9.8,21.8,21.8v87.3Z"/>
</svg>